<?xml version="1.0" encoding="UTF-8"?>
<svg id="a" data-name="レイヤー 4" xmlns="http://www.w3.org/2000/svg" viewBox="0 0 48 48">
  <g>
    <g>
      <path d="M43.37,17.66c-5.94-5.06-12.03-9.15-18.88-13.52-.15-.1-.32-.14-.49-.15-.17,0-.34.05-.49.15-6.84,4.36-12.94,8.46-18.88,13.52-.58.49-.4,1.25.57,1.37.94.12,1.03.14,4.65.46.45.04.81.39.8.85-.11,3.35.1,6.54.63,9.86,4.36,1.55,8.54,2.33,12.72,2.32,4.18,0,8.36-.77,12.72-2.32.53-3.31.74-6.51.63-9.86-.02-.45.34-.81.8-.85,3.63-.32,3.71-.35,4.65-.46.97-.12,1.15-.87.57-1.37ZM34.05,26.77c-.07.57-.46,1.05-1.01,1.22-3.1.96-6.06,1.43-9.02,1.43,0,0-.02,0-.02,0,0,0-.02,0-.02,0-2.95,0-5.92-.47-9.02-1.43-.55-.17-.94-.65-1.01-1.22-.42-3.56-.42-7.14,0-10.7.07-.57.46-1.05,1.01-1.22,3.1-.96,6.06-1.43,9.02-1.43,0,0,.02,0,.02,0,0,0,.02,0,.02,0,2.95,0,5.92.47,9.02,1.43.55.17.94.65,1.01,1.22.42,3.56.42,7.14,0,10.7Z" fill="#fff" stroke-width="0"/>
      <path d="M27.68,19.48l-.99.03c-.69.02-1.2-.65-.99-1.31l1.05-3.3c.17-.52-.49-.91-.86-.51l-6.59,7.03c-.78.83-.16,2.19.97,2.15l.99-.03c.69-.02,1.2.65.99,1.31l-1.05,3.3c-.17.52.49.91.86.51l6.59-7.03c.78-.83.16-2.19-.97-2.15Z" fill="#fff" stroke-width="0"/>
    </g>
    <g>
      <g>
        <path d="M21,41.45c.04.81.08,1.61.13,2.44-.15,0-.27-.01-.38-.02-.24,0-.48-.01-.72-.03-.27-.01-.53-.02-.8-.05-.34-.03-.68,0-1.01.08-.05.01-.1.02-.16.03-.05-.76-.07-1.5-.02-2.26.04-.59.02-1.18.02-1.77,0-.48-.01-.97-.02-1.45,0-.41,0-.82-.01-1.23,0-.14.09-.11.16-.11.13,0,.27.02.41.02.78,0,1.55-.02,2.33-.03.01,0,.02,0,.05,0-.11.85-.03,1.7.03,2.56.03-.03.05-.04.07-.06.12-.12.23-.24.36-.35.36-.3.64-.67.94-1.02.27-.31.51-.64.72-1,.04-.07.09-.09.17-.09.58,0,1.16-.01,1.73-.03.22,0,.44-.04.66-.04.09,0,.18.02.26.03,0,.63-.23,1.17-.52,1.69-.35.63-.8,1.18-1.32,1.67-.09.08-.19.16-.29.23.77,1.05,1.49,2.07,2.07,3.19-.14.01-.26.04-.39.04-.62,0-1.24-.02-1.86-.02-.23,0-.45.01-.68.03-.09,0-.15-.02-.19-.1-.18-.31-.35-.62-.56-.91-.31-.44-.66-.86-.99-1.29-.05-.06-.1-.13-.15-.19,0,0-.02,0-.03,0" fill="#fff" stroke-width="0"/>
        <path d="M34.4,37.1c0,.63-.23,1.17-.52,1.69-.35.62-.78,1.17-1.3,1.65-.08.08-.16.16-.24.25-.01.01-.02.03-.04.05.73,1.01,1.46,2.02,2.04,3.16-.16.01-.3.04-.45.03-.48,0-.95-.02-1.43-.02-.35,0-.7,0-1.05.02-.09,0-.15-.02-.2-.1-.13-.22-.26-.43-.38-.64-.34-.57-.74-1.08-1.18-1.57-.05-.05-.09-.1-.13-.16-.01,0-.02,0-.03,0,.04.81.08,1.61.13,2.43-.15,0-.27-.01-.39-.02-.23,0-.47-.01-.7-.02-.27-.01-.55-.02-.82-.05-.34-.03-.68,0-1.01.08-.05.01-.1.02-.16.03-.02-.23-.04-.46-.05-.69-.02-.65.02-1.3.05-1.95.03-.53,0-1.06-.01-1.59,0-.4,0-.8-.01-1.2,0-.43,0-.85,0-1.28,0-.13.09-.11.15-.11.14,0,.28.02.42.02.77,0,1.54-.02,2.31-.03.02,0,.03,0,.06,0-.12.86-.03,1.7.02,2.58.39-.4.76-.76,1.11-1.14.19-.2.36-.41.53-.63.16-.21.3-.43.44-.65.05-.08.09-.11.18-.11.58,0,1.16-.01,1.73-.03.22,0,.44-.04.66-.04.09,0,.17.02.26.03" fill="#fff" stroke-width="0"/>
        <path d="M9.02,44c-.05-.31,0-.63.04-.94.07-.48.13-.97.19-1.45.01-.09.03-.18.04-.28-.59-.09-1.16.07-1.75,0-.08.9.15,1.77.09,2.65-.19,0-.37.02-.55,0-.58-.07-1.17-.1-1.75-.08-.13,0-.25.02-.38.04-.09.02-.13-.01-.12-.09,0-.28,0-.57.01-.85.03-.58.08-1.16.1-1.74,0-.33-.04-.66-.06-.99,0-.14-.03-.28-.03-.42-.02-.81-.03-1.63-.05-2.44,0-.08,0-.16,0-.22.33,0,.65.03.98.02.57-.01,1.15-.05,1.72-.07.11,0,.21.01.33.02-.03.14-.06.27-.07.4-.02.21-.04.43-.03.64.04.45.01.89-.06,1.33,0,.03,0,.06,0,.09.53.1,1.06.04,1.61,0v-2.43c1.01-.07,2.04-.18,3.09-.02,0,.05.02.14,0,.22-.06.82-.11,1.63-.25,2.44-.14.83-.16,1.67-.03,2.51.04.28.06.56.11.84.03.18.09.35.14.52.06.21.04.25-.18.25-.74,0-1.48,0-2.21,0-.31,0-.62.03-.95.05" fill="#fff" stroke-width="0"/>
        <path d="M37.27,43.9c.07-.44.15-.87.21-1.3.07-.48.12-.96.18-1.44,0-.04,0-.1-.03-.14-.24-.33-.5-.65-.74-.98-.37-.5-.74-.99-1.09-1.5-.29-.42-.56-.84-.85-1.27-.02-.03-.04-.07-.07-.12.12-.01.22-.03.32-.03.47.01.94,0,1.41.05.41.04.81.05,1.21,0,.08,0,.13.01.17.08.23.38.47.76.71,1.13.08.13.17.26.27.41.02-.04.05-.07.07-.1.31-.49.62-.98.93-1.48.04-.06.07-.08.15-.07.67.08,1.34.07,2.01,0,.15-.02.3,0,.45,0,.22.03.44.07.66.11,0,0,0,.02,0,.02-.43.39-.75.87-1.11,1.33-.47.6-.96,1.19-1.44,1.79-.15.18-.29.36-.43.56-.05.07-.07.16-.08.24-.07.75.08,1.48.18,2.22.01.11.04.21.04.32,0,.03-.04.09-.07.1-.08.03-.17.04-.25.04-.5,0-1.01,0-1.51,0-.43,0-.87,0-1.3,0" fill="#fff" stroke-width="0"/>
        <path d="M16.52,43.83c-.95.03-1.89.07-2.85.1,0-.14,0-.3,0-.45.04-.88.01-1.75-.06-2.63-.04-.45,0-.91.01-1.36.01-.66.03-1.32.04-1.98,0-.13.01-.27.02-.4,1-.01,1.99-.03,2.98-.04,0,.46,0,.89,0,1.32-.02.73-.06,1.46-.07,2.2,0,.53.04,1.06.04,1.6,0,.52-.05,1.03-.08,1.55,0,.03-.01.06-.02.09" fill="#fff" stroke-width="0"/>
      </g>
      <g>
        <path d="M41.07,43.09h.73v.18h-.28v.56h-.17v-.56h-.28v-.18Z" fill="#fff" stroke-width="0"/>
        <path d="M42.21,43.83l-.2-.4v.4h-.17v-.73h.19l.26.52.26-.52h.19v.73h-.17v-.4l-.2.4h-.14Z" fill="#fff" stroke-width="0"/>
      </g>
    </g>
  </g>
  <rect width="48" height="48" fill="none" stroke-width="0"/>
</svg>