<?xml version="1.0" encoding="UTF-8"?>
<svg id="a" data-name="レイヤー 5" xmlns="http://www.w3.org/2000/svg" viewBox="0 0 48 48">
  <g>
    <path d="M43.67,23.39c-6.03-5.14-12.22-9.29-19.17-13.72-.15-.1-.32-.15-.5-.15-.17,0-.35.05-.5.15-6.95,4.43-13.14,8.59-19.17,13.72-.59.5-.41,1.27.58,1.39.96.12,1.04.15,4.72.47.46.04.82.4.81.86-.11,3.4.1,6.64.64,10.01,4.43,1.58,8.67,2.36,12.92,2.36,4.24,0,8.48-.78,12.92-2.36.54-3.37.75-6.61.64-10.01-.02-.46.35-.82.81-.86,3.68-.32,3.77-.35,4.72-.47.99-.12,1.17-.89.58-1.39ZM34.21,32.64c-.07.58-.47,1.07-1.03,1.24-3.15.97-6.16,1.45-9.16,1.45,0,0-.02,0-.02,0,0,0-.02,0-.02,0-3,0-6.01-.48-9.16-1.45-.56-.17-.96-.66-1.03-1.24-.43-3.61-.43-7.25,0-10.86.07-.58.47-1.07,1.03-1.24,3.15-.97,6.16-1.45,9.16-1.45,0,0,.02,0,.02,0,0,0,.02,0,.02,0,3,0,6.01.48,9.16,1.45.56.17.96.66,1.03,1.24.43,3.61.43,7.25,0,10.86Z" fill="#000" stroke-width="0"/>
    <path d="M27.73,25.24l-1,.03c-.7.02-1.22-.66-1-1.33l1.07-3.36c.17-.53-.5-.92-.88-.51l-6.69,7.14c-.79.84-.17,2.22.99,2.19l1-.03c.7-.02,1.22.66,1,1.33l-1.07,3.36c-.17.53.5.92.88.51l6.69-7.14c.79-.84.17-2.22-.99-2.19Z" fill="#000" stroke-width="0"/>
  </g>
  <rect y="0" width="48" height="48" fill="none" stroke-width="0"/>
</svg>