<svg width="48" height="48" viewBox="0 0 48 48" fill="none" xmlns="http://www.w3.org/2000/svg">
<g clip-path="url(#clip0_1243_341)">
<path d="M44 24C44 12.9543 35.0457 4 24 4C12.9543 4 4 12.9543 4 24C4 33.3796 10.4572 41.2498 19.1684 43.411V30.1117H15.0443V24H19.1684V21.3665C19.1684 14.5592 22.2491 11.4039 28.9323 11.4039C30.1993 11.4039 32.3856 11.6524 33.28 11.9008V17.4411C32.808 17.3914 31.9881 17.3666 30.9695 17.3666C27.6901 17.3666 26.423 18.6088 26.423 21.8385V24H32.9557L31.8334 30.1117H26.423V43.8535C36.3259 42.6574 44 34.2254 44 24Z" fill="#0866FF"/>
<path d="M31.8336 30.1116L32.9559 23.9999H26.4231V21.8384C26.4231 18.6087 27.6902 17.3664 30.9697 17.3664C31.9883 17.3664 32.8082 17.3913 33.2802 17.441V11.9007C32.3858 11.6522 30.1995 11.4038 28.9324 11.4038C22.2493 11.4038 19.1686 14.559 19.1686 21.3664V23.9999H15.0444V30.1116H19.1686V43.4109C20.716 43.7949 22.334 43.9999 24.0002 43.9999C24.8204 43.9999 25.6288 43.9494 26.4232 43.8534V30.1116H31.8336Z" fill="white"/>
</g>
<defs>
<clipPath id="clip0_1243_341">
<rect width="48" height="48" fill="white"/>
</clipPath>
</defs>
</svg>
