<svg width="48" height="48" viewBox="0 0 48 48" fill="none" xmlns="http://www.w3.org/2000/svg">
<g clip-path="url(#clip0_1114_1847)">
<path d="M35.2203 13.355C33.2432 12.0664 31.8175 10.0038 31.372 7.6006C31.2763 7.08149 31.2229 6.54673 31.2229 6H24.9144L24.9043 31.2819C24.7985 34.1131 22.468 36.3856 19.6119 36.3856C18.7237 36.3856 17.888 36.1638 17.1517 35.7763C15.4636 34.8881 14.3085 33.119 14.3085 31.0831C14.3085 28.1589 16.6878 25.7797 19.611 25.7797C20.1568 25.7797 20.6805 25.8699 21.1757 26.0245V19.5844C20.663 19.5144 20.1421 19.4712 19.611 19.4712C13.2086 19.4712 8 24.6798 8 31.0831C8 35.0114 9.96232 38.4878 12.9573 40.59C14.8433 41.9145 17.1379 42.6941 19.6119 42.6941C26.0143 42.6941 31.2229 37.4855 31.2229 31.0831V18.2627C33.697 20.0381 36.7289 21.0846 40 21.0846V14.7761C38.2383 14.7761 36.5972 14.2524 35.2203 13.355Z" fill="white"/>
</g>
<defs>
<clipPath id="clip0_1114_1847">
<rect width="48" height="48" fill="white"/>
</clipPath>
</defs>
</svg>
