<svg width="48" height="48" viewBox="0 0 48 48" fill="none" xmlns="http://www.w3.org/2000/svg">
<path d="M20.4604 20.2599V18.8464C19.9754 18.7801 19.483 18.7393 18.9807 18.7393C12.9262 18.7393 8 23.6655 8 29.7208C8 33.4362 9.85585 36.7236 12.6882 38.7112C10.8605 36.7491 9.73957 34.1211 9.73957 31.2342C9.73957 25.2661 14.5259 20.3989 20.4614 20.2599H20.4604Z" fill="#25F4EE"/>
<path d="M20.7194 36.2495C23.4209 36.2495 25.6247 34.1003 25.7246 31.4232L25.7346 7.51429H30.1022C30.0113 7.02285 29.9614 6.51778 29.9614 6H23.9959L23.9859 29.9089C23.886 32.586 21.6823 34.7352 18.9807 34.7352C18.1413 34.7352 17.3501 34.5254 16.6543 34.1593C17.5654 35.4229 19.0461 36.2495 20.7194 36.2495Z" fill="#25F4EE"/>
<path d="M38.2614 15.629V14.3C36.5954 14.3 35.0429 13.8049 33.7412 12.9556C34.9003 14.2864 36.4746 15.2465 38.2614 15.629Z" fill="#25F4EE"/>
<path d="M33.7421 12.9556C32.4721 11.4976 31.7009 9.59456 31.7009 7.51343H30.103C30.5236 9.78623 31.8726 11.7366 33.7421 12.9556Z" fill="#FE2C55"/>
<path d="M18.9806 24.7056C16.2154 24.7056 13.9653 26.9557 13.9653 29.7209C13.9653 31.6467 15.0581 33.3199 16.6542 34.1593C16.0592 33.3345 15.7049 32.3262 15.7049 31.2343C15.7049 28.4691 17.955 26.219 20.7202 26.219C21.2361 26.219 21.7312 26.3044 22.1999 26.4507V20.3599C21.7148 20.2936 21.2225 20.2527 20.7202 20.2527C20.6329 20.2527 20.5476 20.2572 20.4613 20.259V24.9364C19.9925 24.7901 19.4975 24.7047 18.9815 24.7047L18.9806 24.7056Z" fill="#FE2C55"/>
<path d="M38.2615 15.6289V20.2653C35.1684 20.2653 32.3015 19.2761 29.9615 17.5965V29.7208C29.9615 35.7762 25.0353 40.7015 18.9809 40.7015C16.6408 40.7015 14.4716 39.9639 12.6875 38.7112C14.6932 40.865 17.551 42.2149 20.7195 42.2149C26.7749 42.2149 31.7002 37.2887 31.7002 31.2342V19.1108C34.0402 20.7904 36.9071 21.7796 40.0002 21.7796V15.8133C39.4034 15.8133 38.822 15.7488 38.2615 15.6289Z" fill="#FE2C55"/>
<path d="M29.9614 29.7209V17.5966C32.3015 19.2762 35.1684 20.2655 38.2614 20.2655V15.629C36.4746 15.2466 34.9004 14.2873 33.7413 12.9556C31.8718 11.7366 30.5228 9.78714 30.1022 7.51343H25.7347L25.7247 31.4224C25.6248 34.0994 23.421 36.2487 20.7194 36.2487C19.0462 36.2487 17.5655 35.422 16.6544 34.1584C15.0583 33.3182 13.9655 31.6449 13.9655 29.72C13.9655 26.9549 16.2156 24.7048 18.9808 24.7048C19.4967 24.7048 19.9918 24.7902 20.4605 24.9364V20.2591C14.5251 20.3981 9.73877 25.2653 9.73877 31.2334C9.73877 34.1203 10.8597 36.7483 12.6874 38.7104C14.4706 39.9622 16.6407 40.7007 18.9808 40.7007C25.0352 40.7007 29.9614 35.7745 29.9614 29.72V29.7209Z" fill="white"/>
</svg>
