<svg width="48" height="48" viewBox="0 0 48 48" fill="none" xmlns="http://www.w3.org/2000/svg">
<g clip-path="url(#clip0_1243_351)">
<path d="M44 24C44 12.9543 35.0457 4 24 4C12.9543 4 4 12.9543 4 24C4 33.3796 10.4572 41.2498 19.1684 43.411V30.1117H15.0443V24H19.1684V21.3665C19.1684 14.5592 22.2491 11.4039 28.9323 11.4039C30.1993 11.4039 32.3856 11.6524 33.28 11.9008V17.4411C32.808 17.3914 31.9881 17.3666 30.9695 17.3666C27.6901 17.3666 26.423 18.6088 26.423 21.8385V24H32.9557L31.8334 30.1117H26.423V43.8535C36.3259 42.6574 44 34.2254 44 24Z" fill="white"/>
</g>
<defs>
<clipPath id="clip0_1243_351">
<rect width="48" height="48" fill="white"/>
</clipPath>
</defs>
</svg>
