<svg width="48" height="48" viewBox="0 0 48 48" fill="none" xmlns="http://www.w3.org/2000/svg">
<g clip-path="url(#clip0_1133_6256)">
<path d="M15.717 4.13988C13.589 4.24028 12.1357 4.57988 10.8653 5.07908C9.55051 5.59148 8.43609 6.27908 7.32728 7.39189C6.21846 8.50469 5.53565 9.61989 5.02685 10.9367C4.53444 12.2099 4.20084 13.6643 4.10683 15.7935C4.01283 17.9227 3.99203 18.6071 4.00243 24.0383C4.01283 29.4696 4.03683 30.1504 4.14003 32.284C4.24164 34.4116 4.58004 35.8644 5.07925 37.1352C5.59245 38.45 6.27926 39.564 7.39248 40.6732C8.50569 41.7824 9.62011 42.4636 10.9401 42.9732C12.2121 43.4648 13.667 43.8 15.7958 43.8932C17.9246 43.9864 18.6098 44.008 24.0395 43.9976C29.4692 43.9872 30.1528 43.9632 32.286 43.862C34.4192 43.7608 35.8645 43.42 37.1357 42.9232C38.4505 42.4088 39.5653 41.7232 40.6737 40.6096C41.7821 39.496 42.4646 38.38 42.973 37.0624C43.4658 35.7904 43.8006 34.3356 43.893 32.2084C43.9862 30.0736 44.0082 29.392 43.9978 23.9615C43.9874 18.5311 43.963 17.8503 43.8618 15.7175C43.7606 13.5847 43.4218 12.1363 42.923 10.8647C42.409 9.54989 41.7229 8.43669 40.6101 7.32669C39.4973 6.21668 38.3805 5.53468 37.0633 5.02748C35.7905 4.53508 34.3364 4.19948 32.2076 4.10748C30.0788 4.01548 29.3936 3.99188 23.9619 4.00228C18.5302 4.01268 17.8502 4.03588 15.717 4.13988ZM15.9506 40.2952C14.0006 40.2104 12.9418 39.8864 12.2361 39.6152C11.3017 39.2552 10.6361 38.82 9.93291 38.1236C9.2297 37.4272 8.7977 36.7592 8.43289 35.8268C8.15889 35.1212 7.82888 34.0636 7.73768 32.1136C7.63848 30.006 7.61768 29.3732 7.60608 24.0335C7.59448 18.6939 7.61488 18.0619 7.70728 15.9535C7.79048 14.0051 8.11649 12.9451 8.38729 12.2399C8.7473 11.3043 9.1809 10.6399 9.87891 9.9371C10.5769 9.23429 11.2429 8.80149 12.1761 8.43669C12.881 8.16149 13.9386 7.83429 15.8878 7.74149C17.997 7.64149 18.629 7.62149 23.9679 7.60989C29.3068 7.59829 29.9404 7.61829 32.0504 7.71109C33.9988 7.79589 35.0593 8.11869 35.7637 8.39109C36.6985 8.75109 37.3637 9.18349 38.0665 9.8827C38.7693 10.5819 39.2025 11.2455 39.5673 12.1807C39.8429 12.8835 40.1701 13.9407 40.2621 15.8911C40.3625 18.0003 40.3853 18.6327 40.3949 23.9711C40.4045 29.3096 40.3857 29.9436 40.2933 32.0512C40.2081 34.0012 39.8849 35.0604 39.6133 35.7668C39.2533 36.7008 38.8193 37.3668 38.1209 38.0692C37.4225 38.7716 36.7573 39.2044 35.8237 39.5692C35.1197 39.844 34.0608 40.172 32.1132 40.2648C30.004 40.364 29.372 40.3848 24.0311 40.3964C18.6902 40.408 18.0598 40.3864 15.9506 40.2952ZM32.2552 13.3107C32.256 13.7854 32.3976 14.2492 32.662 14.6435C32.9264 15.0377 33.3018 15.3447 33.7407 15.5256C34.1796 15.7065 34.6623 15.7532 35.1277 15.6598C35.5931 15.5663 36.0204 15.3369 36.3554 15.0007C36.6905 14.6644 36.9183 14.2363 37.01 13.7705C37.1018 13.3047 37.0533 12.8222 36.8708 12.384C36.6883 11.9458 36.38 11.5715 35.9847 11.3086C35.5895 11.0456 35.1252 10.9058 34.6504 10.9067C34.0141 10.908 33.4042 11.1619 32.9551 11.6128C32.5059 12.0636 32.2542 12.6743 32.2552 13.3107ZM13.731 24.0199C13.7422 29.692 18.3486 34.2796 24.0195 34.2688C29.6904 34.258 34.2812 29.652 34.2704 23.9799C34.2596 18.3079 29.652 13.7191 23.9803 13.7303C18.3086 13.7415 13.7202 18.3487 13.731 24.0199ZM17.3334 24.0127C17.3308 22.6942 17.7193 21.4044 18.4497 20.3066C19.1801 19.2088 20.2196 18.3523 21.4368 17.8453C22.654 17.3383 23.9942 17.2036 25.288 17.4583C26.5817 17.713 27.7709 18.3456 28.7052 19.2761C29.6394 20.2066 30.2767 21.3933 30.5365 22.686C30.7963 23.9787 30.6669 25.3194 30.1647 26.5386C29.6625 27.7578 28.8101 28.8007 27.7152 29.5355C26.6203 30.2702 25.3321 30.6638 24.0135 30.6664C23.138 30.6682 22.2706 30.4976 21.4611 30.1642C20.6515 29.8308 19.9155 29.3411 19.2952 28.7233C18.6749 28.1054 18.1823 27.3714 17.8457 26.5631C17.5091 25.7549 17.335 24.8883 17.3334 24.0127Z" fill="white"/>
</g>
<defs>
<clipPath id="clip0_1133_6256">
<rect width="48" height="48" fill="white"/>
</clipPath>
</defs>
</svg>
