<svg width="48" height="48" viewBox="0 0 48 48" fill="none" xmlns="http://www.w3.org/2000/svg">
<g clip-path="url(#clip0_1302_3268)">
<path d="M44.0156 13.8281C43.6875 12.1875 42.0469 10.5469 40.4063 10.2187C37.125 9.23437 24 9.23438 24 9.23438C24 9.23438 10.875 9.23437 7.59375 10.2187C5.95313 10.5469 4.3125 12.1875 3.98438 13.8281C3 17.1094 3 24 3 24C3 24 3 30.8906 3.98438 34.1719C4.3125 35.8125 5.95313 37.4531 7.59375 37.7813C10.875 38.7656 24 38.7656 24 38.7656C24 38.7656 37.125 38.7656 40.4063 37.7813C42.0469 37.4531 43.6875 35.8125 44.0156 34.1719C45 30.8906 45 24 45 24C45 24 45 17.1094 44.0156 13.8281Z" fill="#FF0000"/>
<path d="M19.7349 30.2346L30.563 24.0002L19.7349 17.7659V30.2346Z" fill="white"/>
</g>
<defs>
<clipPath id="clip0_1302_3268">
<rect width="48" height="48" fill="white"/>
</clipPath>
</defs>
</svg>
