<svg width="48" height="48" viewBox="0 0 48 48" fill="none" xmlns="http://www.w3.org/2000/svg">
<g clip-path="url(#clip0_1133_6529)">
<path d="M44.0156 13.5937C43.6875 11.9531 42.0469 10.3125 40.4063 9.98437C37.125 9 24 9 24 9C24 9 10.875 9 7.59375 9.98437C5.95313 10.3125 4.3125 11.9531 3.98438 13.5937C3 16.875 3 23.7656 3 23.7656C3 23.7656 3 30.6563 3.98438 33.9375C4.3125 35.5781 5.95313 37.2188 7.59375 37.5469C10.875 38.5313 24 38.5313 24 38.5313C24 38.5313 37.125 38.5313 40.4063 37.5469C42.0469 37.2188 43.6875 35.5781 44.0156 33.9375C45 30.6563 45 23.7656 45 23.7656C45 23.7656 45 16.875 44.0156 13.5937ZM19.7344 30V17.5313L30.5625 23.7656L19.7344 30Z" fill="white"/>
</g>
<defs>
<clipPath id="clip0_1133_6529">
<rect width="48" height="48" fill="white"/>
</clipPath>
</defs>
</svg>
