<svg width="48" height="48" viewBox="0 0 48 48" fill="none" xmlns="http://www.w3.org/2000/svg">
<g clip-path="url(#clip0_1123_5168)">
<path d="M38.128 11.5044C35.5234 10.3023 32.7184 9.40071 29.8133 9C29.4126 9.70124 29.1121 10.4025 28.7114 11.1037C25.7061 10.6028 22.6006 10.6028 19.4951 11.1037C19.1946 10.4025 18.7939 9.60106 18.3932 9C15.4881 9.50088 12.7833 10.3023 10.0785 11.5044C4.86936 19.218 3.46689 26.8314 4.16813 34.2445C7.2736 36.5485 10.6796 38.2515 14.286 39.3535C15.0874 38.2515 15.7886 37.0494 16.4898 35.8473C15.2877 35.4466 14.1858 34.8455 13.0838 34.2445C13.3844 34.0441 13.6849 33.8438 13.8852 33.6434C20.2965 36.6487 27.7096 36.6487 34.1209 33.6434C34.4214 33.8438 34.722 34.0441 34.9223 34.2445C33.8204 34.8455 32.7184 35.4466 31.5163 35.8473C32.1174 37.0494 32.8186 38.2515 33.7202 39.3535C37.3265 38.2515 40.8327 36.5485 43.838 34.2445C44.6394 25.6293 42.4355 18.1161 37.9276 11.5044H38.128ZM17.5918 29.6364C15.5882 29.6364 13.9854 27.8332 13.9854 25.6293C13.9854 23.4254 15.5882 21.6222 17.5918 21.6222C19.5953 21.6222 21.1981 23.4254 21.1981 25.6293C21.1981 27.8332 19.5953 29.6364 17.5918 29.6364ZM30.8151 29.6364C28.8115 29.6364 27.2087 27.8332 27.2087 25.6293C27.2087 23.4254 28.8115 21.6222 30.8151 21.6222C32.8186 21.6222 34.4214 23.4254 34.4214 25.6293C34.4214 27.8332 32.8186 29.6364 30.8151 29.6364Z" fill="white"/>
</g>
<defs>
<clipPath id="clip0_1123_5168">
<rect width="48" height="48" fill="white"/>
</clipPath>
</defs>
</svg>
