<svg width="48" height="48" viewBox="0 0 48 48" fill="none" xmlns="http://www.w3.org/2000/svg">
<g clip-path="url(#clip0_1130_6218)">
<path d="M41.6 13.8H6.4C5.1 13.8 4 14.9 4 16.2V31.9C4 33.2 5.1 34.3 6.4 34.3H41.7C43 34.3 44.1 33.2 44.1 31.9V16.2C44.1 14.9 43 13.8 41.7 13.8H41.6ZM15.5 29.2H9V18.9H11.2V27.3H15.5V29.2ZM19.2 29.2H17V18.9H19.2V29.2ZM26.9 29.2H24.2L20.2 18.9H22.7L25.5 26.9L28.3 18.9H30.8L26.9 29.2ZM39 20.7H33.9V22.9H38.8V24.8H33.9V27.2H39V29.1H31.8V18.8H39V20.7Z" fill="white"/>
<path d="M41.6 13.8H6.4C5.1 13.8 4 14.9 4 16.2V31.9C4 33.2 5.1 34.3 6.4 34.3H41.7C43 34.3 44.1 33.2 44.1 31.9V16.2C44.1 14.9 43 13.8 41.7 13.8H41.6ZM15.5 29.2H9V18.9H11.2V27.3H15.5V29.2ZM19.2 29.2H17V18.9H19.2V29.2ZM26.9 29.2H24.2L20.2 18.9H22.7L25.5 26.9L28.3 18.9H30.8L26.9 29.2ZM39 20.7H33.9V22.9H38.8V24.8H33.9V27.2H39V29.1H31.8V18.8H39V20.7Z" fill="black"/>
</g>
<defs>
<clipPath id="clip0_1130_6218">
<rect width="48" height="48" fill="white"/>
</clipPath>
</defs>
</svg>
